<mxfile host="app.diagrams.net" modified="2022-04-23T14:10:27.940Z" agent="5.0 (X11)" etag="113Ye4f2aguiCJ9izYB5" version="17.4.6" type="github">
  <diagram id="fBou8jqfJ-IzIA2dnfak" name="Page-1">
    <mxGraphModel dx="1357" dy="807" grid="0" gridSize="10" guides="1" tooltips="1" connect="1" arrows="1" fold="1" page="1" pageScale="1" pageWidth="850" pageHeight="1100" background="#333333" math="0" shadow="0">
      <root>
        <mxCell id="0" />
        <mxCell id="1" parent="0" />
        <mxCell id="vV10gTrduIRS4eCzoeQk-1" value="/* ap_mem_port Types */&lt;br&gt;enum ap_mem_port_type {&lt;br&gt;&amp;nbsp;&amp;nbsp;&amp;nbsp; RAM_1P = 0,&lt;br&gt;&amp;nbsp;&amp;nbsp;&amp;nbsp; RAM1P = RAM_1P,&lt;br&gt;&amp;nbsp;&amp;nbsp;&amp;nbsp; RAM_2P = 1,&lt;br&gt;&amp;nbsp;&amp;nbsp;&amp;nbsp; RAM2P = RAM_2P,&lt;br&gt;&amp;nbsp;&amp;nbsp;&amp;nbsp; RAM_T2P = 2,&lt;br&gt;&amp;nbsp;&amp;nbsp;&amp;nbsp; RAMT2P = RAM_T2P,&lt;br&gt;&amp;nbsp;&amp;nbsp;&amp;nbsp; ROM_1P = 3,&lt;br&gt;&amp;nbsp;&amp;nbsp;&amp;nbsp; ROM1P = ROM_1P,&lt;br&gt;&amp;nbsp;&amp;nbsp;&amp;nbsp; ROM_2P = 4,&lt;br&gt;&amp;nbsp;&amp;nbsp;&amp;nbsp; ROM2P = ROM_2P,&lt;br&gt;};" style="rounded=0;whiteSpace=wrap;html=1;align=left;fillColor=#6a00ff;fontColor=#ffffff;strokeColor=#3700CC;" vertex="1" parent="1">
          <mxGeometry x="33" y="41" width="160" height="230" as="geometry" />
        </mxCell>
        <mxCell id="vV10gTrduIRS4eCzoeQk-2" value="mem ports" style="rounded=0;whiteSpace=wrap;html=1;" vertex="1" parent="1">
          <mxGeometry x="33" y="19" width="120" height="13" as="geometry" />
        </mxCell>
      </root>
    </mxGraphModel>
  </diagram>
</mxfile>
